# xmcd
#
# Track frame offsets: 
#        150
#        17501
#        34246
#        49856
#        72894
#        93174
#        113772
#        131632
#        150674
#
# Disc length: 2293 seconds
#
# Revision: 1
# Processed by: cddbd v1.5.2PL0 Copyright (c) Steve Scherf et al.
# Submitted via: ExactAudioCopyFreeDBPlugin 1.0
#
DISCID=6c08f309
DTITLE=Goldfrapp - Head First
DYEAR=2010
DGENRE=Synthpop
TTITLE0=Rocket
TTITLE1=Believer
TTITLE2=Alive
TTITLE3=Dreaming
TTITLE4=Head First
TTITLE5=Hunt
TTITLE6=Shinny And Warm
TTITLE7=I Wanna Life
TTITLE8=Voicething
EXTD=
EXTT0=
EXTT1=
EXTT2=
EXTT3=
EXTT4=
EXTT5=
EXTT6=
EXTT7=
EXTT8=
PLAYORDER=
